<svg width="90" height="90" viewBox="0 0 90 90" fill="none" xmlns="http://www.w3.org/2000/svg">
<g clip-path="url(#clip0)">
<path d="M41.6955 0.0773729C38.0674 0.372685 34.2776 1.11097 31.3596 2.10237C28.0549 3.22034 26.1002 4.0219 23.5901 5.30159C21.1643 6.53206 19.9408 7.31253 17.9299 8.8805C14.4916 11.5805 11.419 14.5477 9.55567 16.9805C7.09473 20.1938 6.15957 21.7125 4.34551 25.4532C3.36817 27.4641 3.02363 28.3782 2.04629 31.5703C1.24473 34.186 1.07598 34.8399 0.815821 36.3164C0.400977 38.6508 0.211133 39.7336 0.126758 40.3242C0.00722655 41.175 0.00722655 47.5313 0.126758 48.8461C0.358789 51.3352 0.907227 54.5696 1.48379 56.8477C1.6877 57.6422 2.44004 59.9133 2.70723 60.5391C2.83379 60.8274 2.99551 61.2422 3.05879 61.4532C3.1291 61.6641 3.24863 61.9664 3.31895 62.1141C3.39629 62.2688 3.50879 62.55 3.56504 62.7469C3.66348 63.0914 4.92207 65.6016 5.09785 65.8125C5.14707 65.8688 5.37207 66.2836 5.6041 66.7266C6.25801 67.9922 8.03692 70.8539 9.09864 72.3446C9.72442 73.2235 11.6018 75.2063 14.1682 77.7024C16.1369 79.6149 16.4674 79.9032 18.0635 81.0633C20.2994 82.6946 22.2541 83.9321 24.3986 85.0571C27.1057 86.4844 31.444 88.0946 34.4885 88.7977C35.3674 88.9946 38.2924 89.4727 39.4807 89.6133C40.0221 89.6696 40.6408 89.7539 40.8518 89.7891C41.5479 89.9157 44.3674 90.0211 45.8791 89.9719C47.3346 89.9297 48.1994 89.8594 50.4846 89.5782C53.719 89.1774 56.0252 88.6571 59.1612 87.6024C61.8049 86.7164 62.8737 86.2453 65.7424 84.7266C68.8854 83.0602 71.3604 81.443 73.2307 79.8258C73.5401 79.5586 73.9971 79.193 74.2502 79.0172C74.869 78.5813 76.676 76.8938 77.5057 75.9727C79.3409 73.9477 80.4166 72.5344 82.5893 69.2789C84.7268 66.0867 86.7377 61.7485 87.8205 58.0078C88.5096 55.6102 88.6924 54.7032 89.1565 51.293C89.3534 49.8586 89.5432 48.4875 89.5854 48.2344C89.6979 47.4961 89.7401 44.2617 89.6627 42.3985C89.5362 39.4875 89.051 36.3094 88.2776 33.3633C87.8276 31.6336 87.2159 29.8266 86.7729 28.8985C86.6534 28.6453 86.5549 28.3852 86.5549 28.3149C86.5549 28.2516 86.4143 27.9141 86.2526 27.5766C86.0838 27.2391 85.6971 26.4235 85.4018 25.7555C85.0995 25.0875 84.769 24.4125 84.6635 24.2438C84.558 24.075 84.2909 23.611 84.0659 23.2032C83.8409 22.7953 83.4823 22.1977 83.2713 21.8672C83.0604 21.5367 82.6455 20.8828 82.3502 20.4117C80.6205 17.6555 79.0526 15.7641 75.8744 12.5789C74.8198 11.5242 73.8846 10.6524 73.6174 10.4766C73.3643 10.3078 72.9424 9.97737 72.6682 9.73831C71.2409 8.47972 68.3159 6.57425 65.7073 5.18909C64.4908 4.54222 60.6307 2.8055 60.1174 2.6719C59.9416 2.62972 59.0768 2.36253 58.1838 2.07425C55.5541 1.23753 52.3338 0.576592 49.4299 0.281279C47.2362 0.0633104 43.1932 -0.0491896 41.6955 0.0773729ZM45.7315 1.26565C46.1112 1.4555 46.2026 1.47659 46.8283 1.47659C47.3838 1.47659 47.5455 1.49769 47.6721 1.60315L47.8268 1.72972L47.0815 2.5594C45.9987 3.75472 45.5627 4.45081 45.2182 5.49847C45.1268 5.76565 45.0354 5.97659 45.0072 5.97659C44.9721 5.97659 44.8947 5.82894 44.8244 5.63909C44.5924 5.02034 44.058 4.17659 43.3338 3.28362C43.0877 2.98128 42.8908 2.70706 42.8908 2.6719C42.8908 2.62972 42.8346 2.60159 42.7643 2.60159C42.5815 2.60159 42.3424 2.32034 42.2862 2.05315C42.2299 1.78597 42.3002 1.75081 43.2072 1.58909C43.7135 1.50472 43.8963 1.4344 44.1846 1.2305C44.5151 0.991435 44.5713 0.977373 44.9299 1.01253C45.1619 1.03362 45.4783 1.13206 45.7315 1.26565ZM52.6432 1.83519C53.1987 1.9055 54.844 2.29925 55.4557 2.50315C55.9198 2.65784 56.8198 3.11487 58.3666 3.97972C59.9627 4.87269 60.5885 5.09769 62.0862 5.34378C62.6346 5.43519 63.0002 5.57581 63.0002 5.70237C63.0002 5.843 62.3323 6.48284 61.833 6.82034C60.9401 7.41097 60.3283 7.55862 59.4073 7.38284C58.8307 7.27034 58.444 7.05237 58.2401 6.7219C58.008 6.35628 57.5088 5.81487 56.7424 5.11175C56.2713 4.67581 55.9901 4.48597 55.4416 4.21878C54.4291 3.73362 53.4869 3.45237 53.3955 3.60003C53.3182 3.72659 53.733 4.03597 54.2744 4.2469C55.0408 4.54925 55.9901 5.21722 56.8198 6.03987C57.5791 6.79925 57.8674 7.21409 57.8674 7.57972C57.8674 7.80472 57.2627 8.77503 56.9744 8.993C56.8127 9.12659 56.6932 9.14065 55.8494 9.14065C55.1885 9.14065 54.8369 9.11253 54.6682 9.04222C54.3518 8.90862 54.0635 8.45159 53.8174 7.70628C53.5854 7.00315 53.1565 6.15237 52.8401 5.78675C52.601 5.5055 52.0033 5.13284 51.926 5.21722C51.8557 5.28753 52.0104 5.54065 52.4744 6.11722C53.1565 6.97503 53.4096 7.67112 53.3533 8.55003C53.3323 8.91565 53.2901 9.04222 53.1143 9.25315C52.6924 9.7805 51.9752 9.97737 51.0612 9.81565C50.4494 9.71019 49.9432 9.49222 49.676 9.23206C49.4229 8.9719 49.451 8.81722 49.7815 8.64847C50.1471 8.45862 50.2877 8.17034 50.3299 7.51644C50.358 7.07347 50.3369 6.93987 50.2104 6.68675C49.9502 6.1805 49.2752 6.03284 48.6565 6.34222C48.3963 6.47581 48.2979 6.58128 48.1291 6.92581C47.9393 7.3055 47.9182 7.41097 47.9182 8.01565C47.9182 8.62034 47.9393 8.72581 48.1432 9.16878C48.5791 10.0758 49.7252 10.9196 50.801 11.1164C51.476 11.243 52.6924 11.1516 54.0354 10.8703C55.3854 10.5961 56.1518 10.343 57.9729 9.58362C60.5533 8.51487 62.1987 8.05081 63.8791 7.93128C65.1448 7.8469 66.2909 7.90315 67.0502 8.08597C68.8924 8.52894 70.0596 9.22503 71.2057 10.5469C72.5205 12.0657 72.858 14.1821 72.0916 16.0875C71.5221 17.5149 70.5729 18.4782 69.1315 19.0899C68.0416 19.5469 67.5635 19.6524 66.5159 19.6524C65.4541 19.6524 65.0252 19.5539 64.0549 19.0899C63.4291 18.7805 62.9932 18.4852 61.376 17.2196C59.3721 15.6516 58.683 15.2649 57.2346 14.8992C56.7916 14.7867 56.3979 14.6602 56.3627 14.625C56.2502 14.5125 56.5807 13.943 56.9604 13.5703C57.769 12.7688 59.2174 12.4102 60.033 12.811C60.476 13.0219 61.151 13.711 61.5658 14.3719C62.0088 15.0821 62.8526 16.2211 63.1338 16.4813C63.3237 16.6641 63.3518 16.6711 63.394 16.5586C63.4502 16.418 63.3518 16.2352 62.7823 15.4477C62.5573 15.1313 62.1846 14.5055 61.9526 14.0625C61.1862 12.5719 61.1932 12.4032 62.058 11.5524C62.3885 11.2289 62.7401 10.9477 62.8315 10.9266C62.9369 10.8985 63.1198 10.9266 63.2674 10.9969C63.408 11.0602 63.7526 11.1375 64.0268 11.1797C64.294 11.2149 64.6948 11.3203 64.9057 11.4188L65.2924 11.5875L65.2291 12.2133C65.1377 13.1485 65.208 14.0766 65.4119 14.6602C65.7002 15.4899 66.0237 16.0524 66.1432 15.9399C66.1573 15.9188 66.0518 15.4477 65.8971 14.8922C65.7424 14.3367 65.5948 13.7391 65.5666 13.5492C65.4682 12.8321 65.8619 11.7352 66.2768 11.5594C66.5862 11.4328 67.3666 11.4328 67.683 11.5664C67.9994 11.693 68.8573 12.5227 69.0049 12.8321C69.251 13.3524 69.1315 13.5703 68.5549 13.6547C67.5987 13.7813 66.9799 14.5617 67.2119 15.3422C67.2682 15.511 67.444 15.7711 67.6619 15.9961C67.9713 16.3125 68.0768 16.3758 68.3721 16.418C69.1948 16.5446 69.933 16.1438 70.3198 15.3633C70.5026 14.9907 70.5448 14.8008 70.5799 14.2875C70.6432 13.1203 70.2776 12.1852 69.4057 11.3203C68.4002 10.3219 67.3315 9.92815 65.426 9.86487C63.2674 9.78753 61.9666 10.118 58.7815 11.5313C57.6987 12.0094 57.2557 12.1641 56.1448 12.4453C54.1971 12.9375 53.1776 13.0992 51.9612 13.1063C50.4565 13.1133 49.5494 12.8672 48.2697 12.0938C47.5737 11.6719 47.0463 11.1305 46.6244 10.3852C45.9424 9.18284 45.7455 8.39534 45.7947 7.13675C45.8651 5.49847 46.3994 4.50003 47.8901 3.22737C49.1697 2.13753 50.0346 1.793 51.5533 1.76487C51.8487 1.76487 52.3408 1.793 52.6432 1.83519ZM38.9744 2.20784C40.3455 2.47503 41.808 3.143 42.5112 3.83206C43.0033 4.31722 43.594 5.18206 43.7908 5.71644C43.9455 6.12425 44.1283 7.03831 44.1987 7.7344C44.3252 9.07737 43.4112 10.8422 41.9979 11.9742C40.6408 13.0571 39.5932 13.4297 37.8916 13.4297C36.0705 13.4297 34.594 13.0711 32.3369 12.0938C31.7322 11.8266 31.0854 11.5664 30.8955 11.5102C30.7057 11.4539 29.7776 11.1024 28.8283 10.7367C26.6979 9.90706 26.6135 9.87894 25.7205 9.69612C24.3916 9.4219 22.669 9.52034 21.6916 9.93519C20.433 10.4555 19.4065 11.5524 19.0408 12.7477C18.858 13.3594 18.8861 14.2735 19.1111 14.7797C19.4205 15.4758 20.0463 15.961 20.6369 15.961C21.2416 15.961 21.5932 15.6516 21.7268 14.9977C21.8815 14.2735 21.7268 14.0485 20.7775 13.5633C20.5315 13.4438 20.5315 13.2891 20.7494 12.818C20.9182 12.4664 21.326 12.15 21.8674 11.9461C22.444 11.7282 23.3088 11.7774 23.8221 12.0586C24.2651 12.2977 24.5393 12.7055 24.5393 13.1063C24.5393 13.4297 24.2651 14.2735 23.9276 14.9696C23.7518 15.3422 23.5268 15.6516 23.119 16.0735C22.8025 16.4039 22.5705 16.6852 22.5986 16.7133C22.6197 16.7344 22.8025 16.6852 22.9994 16.5867C23.7236 16.2492 24.5955 15.0469 24.8135 14.0977C24.8557 13.9008 24.919 13.4578 24.9611 13.1133C25.0596 12.2485 25.2002 11.8125 25.4322 11.5875C25.6924 11.3485 25.8401 11.2782 26.6768 10.9899L27.3869 10.7508L27.7947 11.1938C28.3643 11.8125 28.6174 12.2555 28.6174 12.6703C28.6174 13.1133 28.2096 13.8938 27.4713 14.8711C26.5994 16.0102 26.4307 16.2633 26.501 16.3336C26.5432 16.3758 26.6486 16.3407 26.7752 16.2492C27.1197 16.0102 28.0479 14.9907 28.5752 14.2735C28.8494 13.9078 29.2924 13.3735 29.5666 13.0922L30.0658 12.586H30.551C31.1486 12.593 31.7885 12.7196 32.1682 12.9164C32.794 13.2399 33.7502 14.2032 33.7502 14.5055C33.7502 14.5828 33.6588 14.6321 33.4901 14.6602C32.2385 14.8571 32.0416 14.9414 29.9182 16.2914C26.1213 18.6961 24.8486 19.2024 22.7815 19.0969C21.34 19.0336 20.0744 18.675 19.3432 18.1266C18.7033 17.6555 17.8947 16.7836 17.6908 16.3547C17.3393 15.6094 17.0299 13.8657 17.1072 13.0219C17.1565 12.4453 17.5221 11.2711 17.7963 10.786C17.9088 10.5891 18.0002 10.3782 18.0002 10.3149C18.0002 10.2516 18.1057 10.1321 18.2322 10.0407C18.3518 9.95628 18.7455 9.66097 19.09 9.38675C20.9182 7.9594 23.2033 7.36175 25.5236 7.69222C27.6541 8.00159 27.9776 8.10003 31.6971 9.59065C35.1916 10.9899 35.7471 11.1586 37.1955 11.2289C39.8744 11.3625 41.5619 10.3711 41.9135 8.46565C42.0682 7.61487 41.808 6.67269 41.3088 6.28597C40.6549 5.79378 39.6565 6.26487 39.6565 7.0805C39.6565 7.5094 39.8533 7.81175 40.3244 8.093C40.5565 8.23362 40.7885 8.4305 40.8377 8.53597C40.9221 8.69769 40.9151 8.76097 40.7815 9.03519C40.3807 9.8719 38.7986 10.3992 37.8424 10.0196C37.069 9.71019 36.7174 8.71175 37.0408 7.76956C37.1111 7.57269 37.4276 6.99612 37.751 6.48284C38.0744 5.96956 38.3205 5.53362 38.2994 5.51253C38.2291 5.43519 37.526 6.03987 37.2447 6.41956C36.8721 6.91878 36.5979 7.47425 36.3447 8.26175C36.0213 9.26019 35.7682 9.42894 34.3619 9.56956C33.8486 9.61878 33.5744 9.61878 33.483 9.56956C33.3635 9.50628 33.033 9.02112 32.5619 8.21956L32.4002 7.93831L32.5901 7.57269C33.0682 6.63753 34.0455 5.51253 35.1776 4.57737C35.7822 4.07815 35.8947 3.93753 35.6838 3.93753C35.2479 3.93753 34.4533 4.53519 32.8291 6.09612C31.5213 7.34769 31.1065 7.63597 30.5088 7.72737C30.0729 7.79769 29.2221 7.71331 28.751 7.55862C27.9213 7.27737 27.0213 5.9344 27.3377 5.43519C27.3658 5.38597 27.5838 5.28753 27.8088 5.21019C29.0955 4.79534 30.6072 4.22581 31.5283 3.82503C32.9627 3.19222 33.6869 2.918 34.6854 2.62972C36.3869 2.13753 37.8565 1.9969 38.9744 2.20784ZM45.2393 11.1375C45.5979 11.5102 45.7385 12.1219 45.5135 12.3188C45.3166 12.4946 44.8104 12.7266 44.6346 12.7266C44.3885 12.7266 43.7557 12.4032 43.6643 12.2344C43.5096 11.9391 43.8822 11.2922 44.3533 11.0391C44.7471 10.8352 44.9791 10.8563 45.2393 11.1375ZM16.3549 13.1344C16.3619 14.5196 16.4885 15.4617 16.7768 16.2914C16.8752 16.5797 16.9385 16.8328 16.9174 16.861C16.8893 16.8821 16.608 16.8188 16.2916 16.7133C15.9682 16.6078 15.4408 16.4883 15.1174 16.4461C14.5549 16.3688 13.2049 16.3899 12.1854 16.4953C11.9393 16.5235 11.7424 16.5164 11.7424 16.4953C11.7424 16.3336 12.0869 15.8344 12.4385 15.4899C12.8252 15.1032 12.8533 15.0539 12.9025 14.6602C12.9658 14.1469 13.1838 13.7461 13.6127 13.3664C13.901 13.1133 13.9854 13.0782 14.2736 13.0782C14.6463 13.0782 14.9346 12.9024 15.469 12.3399C15.8627 11.925 16.1791 11.7211 16.2705 11.8125C16.3127 11.8547 16.3479 12.4242 16.3549 13.1344ZM73.6315 12.5649C73.8494 12.6914 74.1166 12.8742 74.2291 12.9657C74.5104 13.1977 74.7073 13.2891 74.9182 13.2891C75.4315 13.2891 76.0221 13.8516 76.1557 14.4703C76.2401 14.8782 76.2471 14.8852 77.0487 15.5953C77.3229 15.8344 77.6112 16.1227 77.6885 16.2282L77.8221 16.425L76.7252 16.3969C75.4104 16.3617 74.7635 16.4602 73.5963 16.875C73.1674 17.0297 72.8018 17.1422 72.7877 17.1211C72.7666 17.1 72.8159 16.868 72.9073 16.6078C73.1955 15.7219 73.2588 13.6266 73.0198 12.6774C72.9705 12.4805 72.9424 12.2977 72.9635 12.2766C73.0127 12.2274 73.1744 12.2977 73.6315 12.5649ZM47.883 13.9641C50.6041 14.2383 53.6979 15.0188 56.5666 16.1508C57.6916 16.5938 60.0541 17.761 60.9963 18.3305C61.3408 18.5485 61.6994 18.7453 61.7908 18.7805C61.8752 18.8157 61.9455 18.8719 61.9455 18.9071C61.9455 18.9422 62.1424 19.0899 62.3744 19.2375C63.4291 19.8774 65.6018 21.6703 66.7268 22.8235C68.2455 24.3844 70.0385 26.5289 70.3549 27.1617C70.4604 27.3657 70.8893 28.0828 71.3182 28.7578C72.401 30.4875 73.8424 33.4688 74.4541 35.2477C74.9955 36.8297 75.4596 38.7211 75.6846 40.3242C75.8323 41.3719 76.008 43.5235 76.008 44.3321C76.008 45.1125 75.8252 48.1852 75.7198 49.1836C75.6354 50.0344 74.9885 53.1211 74.8057 53.5922C74.7354 53.775 74.6088 54.1828 74.5315 54.5063C74.1799 55.8633 72.9776 58.6828 71.9018 60.6446C71.051 62.1914 70.7065 62.7047 69.5182 64.1461C67.676 66.3961 66.9307 67.1836 65.0041 68.8782C62.8455 70.7766 61.9385 71.4024 59.6604 72.5555C56.5596 74.1375 53.501 75.2485 50.8713 75.7547C49.4651 76.0219 49.1487 76.0641 47.6018 76.1836C45.8018 76.3172 44.9932 76.3172 42.8135 76.1836C41.3229 76.0922 40.8518 76.036 39.4385 75.7617C37.0549 75.3047 35.5713 74.8969 33.8768 74.243C32.8643 73.8563 31.3385 73.1883 30.5721 72.8016C26.9299 70.9735 22.908 67.7883 20.644 64.9407C18.3025 62.0016 15.708 57.0305 14.7658 53.6696C14.3721 52.2844 13.9502 49.8657 13.6268 47.2149C13.4791 45.9563 13.5143 42.9891 13.7041 41.4141C13.9713 39.1711 14.5338 36.6961 15.1877 34.875C16.0244 32.5547 16.1932 32.161 17.1775 30.1992C17.9299 28.7016 18.3307 28.0336 19.1955 26.8594C21.2275 24.1032 23.7869 21.5719 26.4377 19.6875C28.2729 18.3797 30.6494 17.1141 33.3916 15.961C36.2463 14.7727 39.8182 13.9992 43.2424 13.8235C44.1987 13.7742 46.8424 13.8516 47.883 13.9641ZM14.8854 17.1563C15.4971 17.2055 15.7854 17.2617 16.165 17.4235C16.7416 17.6696 17.4518 18.1547 17.7893 18.5414C19.2869 20.243 19.8354 23.3016 19.0057 25.3125C18.8721 25.643 18.6471 26.1 18.5065 26.3321C18.0354 27.1196 16.8822 28.793 16.4252 29.3485C15.933 29.9602 15.2932 31.1555 14.8361 32.3227C14.6885 32.6953 14.5197 33.0399 14.4494 33.0821C14.351 33.1383 14.2596 33.075 13.915 32.7094C13.3525 32.0907 13.2119 31.7039 13.1627 30.6071C13.1346 29.8336 13.1416 29.7282 13.2822 29.4399C13.465 29.0672 13.8307 28.7157 14.3158 28.4414C15.6588 27.6821 16.8822 26.4938 17.5783 25.2774C17.9932 24.5461 18.2815 23.5547 18.0705 23.5547C18.0354 23.5547 18.0002 23.6461 18.0002 23.7586C18.0002 23.8711 17.951 24.0117 17.8947 24.075C17.8315 24.1313 17.6908 24.3633 17.5713 24.5883C16.7908 26.0719 15.0049 27.6258 13.6197 28.0196C12.9518 28.2094 12.3682 28.0477 11.3486 27.3867C11.0041 27.1688 10.7088 26.9719 10.6947 26.9578C10.6525 26.9157 11.4822 25.2985 11.651 25.0946C11.8479 24.8625 12.1361 24.7922 13.5775 24.6446C15.1736 24.4828 15.6588 24.286 16.3408 23.5547C16.6994 23.161 16.9174 22.7391 16.8611 22.5563C16.8471 22.5141 16.594 22.7039 16.3057 22.9852C15.6799 23.5969 15.3283 23.7938 14.5619 23.9344C12.6635 24.293 11.7213 23.7235 11.7283 22.2188C11.7354 21.811 11.7775 21.5719 11.89 21.3047C12.1502 20.7071 13.0221 20.0391 13.5565 20.0391C13.8096 20.0391 13.8799 20.1375 13.9572 20.6016C14.0205 20.9742 14.2104 21.2696 14.4846 21.4102C14.9065 21.6282 15.265 21.5086 15.7361 20.9953C15.9893 20.7211 16.0315 20.6297 16.0315 20.3766C16.0315 19.9899 15.701 19.2867 15.4057 19.0336C15.1174 18.7946 14.8291 18.7383 13.8869 18.7453C13.001 18.7524 12.6635 18.8508 11.9815 19.3149C10.8072 20.1164 10.301 21.143 9.94239 23.4492C9.7877 24.4477 9.84395 25.2422 10.1182 26.2266C10.4065 27.2391 11.0604 29.1446 11.4049 29.9532C12.4244 32.3578 12.769 33.4125 13.1557 35.2969C13.3315 36.1969 13.3736 36.5555 13.3736 37.336C13.3736 38.7492 13.1346 39.9727 12.6916 40.8516C12.2557 41.7164 11.0252 42.975 10.2096 43.4039C9.27442 43.8961 8.8877 43.9805 7.59395 43.9805C6.31426 43.9805 5.92051 43.8961 4.87988 43.418C3.25567 42.6727 2.05332 40.9992 1.75098 39.0797C1.56113 37.8774 1.91973 35.2547 2.46113 33.8203C2.63692 33.3703 3.20645 32.2383 4.00098 30.7617C4.53535 29.7774 4.83067 29.0883 5.30879 27.7524C5.41426 27.45 5.55489 27.1336 5.6252 27.0492L5.75176 26.8946L6.06114 27.0422C6.22989 27.1266 6.55332 27.3586 6.77129 27.5625C7.31973 28.0617 7.4041 28.3641 7.36895 29.6649C7.34082 30.7969 7.43223 30.6352 6.13145 32.0555C5.1541 33.1242 4.78848 33.6305 4.42285 34.418C4.14863 35.0227 3.89551 35.8383 3.95879 35.9086C3.97988 35.9227 4.11348 35.7258 4.26113 35.4727C4.67598 34.7203 5.30879 33.9117 6.04004 33.1805C6.90489 32.3227 7.27754 32.0977 7.81192 32.1117C8.02989 32.1117 8.31114 32.175 8.44473 32.2383C8.90176 32.4774 9.7877 33.1383 9.85801 33.3C9.91426 33.4196 9.91426 33.6586 9.85098 34.1438C9.71036 35.3039 9.59082 35.4235 8.1002 35.9367C7.14395 36.2672 6.65176 36.5133 6.11035 36.9422C5.6041 37.336 5.08379 38.1094 5.32989 38.1094C5.35801 38.1094 5.59707 37.9196 5.86426 37.6946C7.23535 36.5274 8.67676 36.1125 9.35176 36.6821C9.64004 36.9211 9.75254 37.1602 9.84395 37.7016C9.92832 38.2571 9.83692 38.8617 9.59786 39.2696C9.36582 39.6703 8.88067 40.1485 8.71192 40.1485C8.62754 40.1485 8.45176 40.0289 8.30411 39.8883C8.16348 39.7477 7.94551 39.5578 7.81192 39.4664C7.36192 39.1641 6.69395 39.2977 6.19473 39.7969C5.99785 40.0008 5.97676 40.0571 5.97676 40.4719C5.97676 41.5055 6.56739 41.9696 7.79785 41.8852C9.61192 41.7586 10.6807 40.8305 11.1518 38.9672C11.6088 37.1602 11.1729 35.2336 9.36582 31.1133C7.95254 27.886 7.66426 26.7821 7.66426 24.6305C7.66426 22.2258 8.33223 20.236 9.55567 18.9633C10.6807 17.7891 11.6932 17.2758 13.1065 17.1563C14.0346 17.0789 14.0275 17.0789 14.8854 17.1563ZM77.4494 17.2969C78.6307 17.5922 79.9034 18.4078 80.5573 19.2867C81.0213 19.9125 81.4995 20.9672 81.8791 22.1836L82.2096 23.2383L82.1745 24.7852C82.1463 26.093 82.1112 26.4586 81.9565 27.1758C81.6823 28.4625 81.183 29.8477 80.2971 31.7813C79.1862 34.2141 78.8838 34.8961 78.6026 35.6836L78.3002 36.5274L78.2721 37.7367C78.244 39.0305 78.3002 39.3961 78.6448 40.0782C79.0737 40.9219 80.1002 41.7094 81.2393 42.0539C81.6963 42.1875 82.4768 42.1524 82.8213 41.9766C83.4752 41.6461 83.9534 41.0485 83.9534 40.5563C83.9534 40.2047 83.637 39.6282 83.2713 39.3047C83.0112 39.0797 82.8987 39.0235 82.6666 39.0235C82.1463 39.0235 81.7034 39.4453 81.5979 40.043C81.5065 40.5914 81.2393 40.6899 80.6627 40.4016C79.9948 40.0641 79.4604 39.375 79.3127 38.6578C79.1721 37.9688 79.3198 37.5258 79.8471 37.0617C80.5643 36.436 81.3659 36.225 82.1674 36.4571C82.962 36.6891 83.3909 36.9563 84.0377 37.6383C84.6284 38.2571 84.6565 38.2782 84.6565 38.0742C84.6495 37.5821 83.5877 36.4782 82.7229 36.0774C82.4909 35.9649 82.062 35.8242 81.7737 35.7539C80.9018 35.55 80.5995 35.3953 80.501 35.1C80.4096 34.8188 80.4518 33.6164 80.5713 33.3141C80.6205 33.1805 80.8174 33.0328 81.2393 32.8008C81.9354 32.4282 82.2307 32.386 82.7159 32.618C83.2502 32.8782 84.5159 34.3125 85.4932 35.7821C85.7041 36.0985 85.894 36.3375 85.908 36.2953C85.9502 36.1688 85.5776 35.3532 85.1909 34.6992C84.9799 34.3477 84.544 33.75 84.2276 33.3633C83.4541 32.4352 82.8073 31.5141 82.533 30.9586C82.3502 30.586 82.301 30.3961 82.2799 29.925C82.2026 28.5188 82.8424 27.3094 83.9252 26.8102C84.4174 26.5852 84.4877 26.6414 84.551 27.2672C84.6284 28.0477 84.7971 28.8914 85.0221 29.6016C85.2682 30.368 85.3807 30.6211 85.6057 30.8672C85.7955 31.0852 86.7799 32.9555 86.9698 33.4758C87.2088 34.1227 87.5955 35.6555 87.687 36.3164C87.8346 37.336 87.8135 38.9672 87.6518 39.5157C87.3284 40.6125 86.562 41.9555 85.8448 42.6938C85.1627 43.3899 84.1221 43.7836 82.5401 43.9453C81.2815 44.0719 80.1776 43.9242 79.3971 43.5305C78.1666 42.9117 77.2807 41.8922 76.7815 40.5141C76.1416 38.7633 76.1276 37.2867 76.7182 34.9172C77.0135 33.7571 77.126 33.4477 77.9276 31.6407C78.3073 30.7688 78.701 29.8336 78.7994 29.5664C78.8979 29.2922 79.0596 28.8844 79.1721 28.6524C79.5026 27.9492 79.8682 26.775 79.9526 26.1563C80.0721 25.2563 79.9948 23.1047 79.812 22.3805C79.3479 20.5313 78.2932 19.3711 76.6901 18.9422C76.2612 18.8297 75.5862 18.8157 75.2346 18.9141C74.5034 19.118 73.8987 19.793 73.8987 20.3977C73.8987 20.693 73.9268 20.7492 74.1869 20.9883C74.5948 21.361 75.1784 21.6141 75.4948 21.5649C75.8252 21.5086 76.2752 21.2063 76.4159 20.9391C76.6409 20.5383 76.7885 20.3907 76.9784 20.3907C77.4635 20.3907 78.258 21.0375 78.258 21.4383C78.258 21.5438 78.3213 21.7196 78.3987 21.818C78.5744 22.043 78.5744 22.2258 78.3987 22.7953C78.2651 23.2242 77.9487 23.7586 77.7026 23.9625C77.4354 24.1805 77.0135 24.3282 76.6198 24.3282C75.9377 24.3282 75.2557 24.0399 73.9409 23.1891C73.7088 23.0414 73.5119 22.936 73.4979 22.95C73.4346 23.0133 73.7932 23.5969 74.0955 23.9203C74.4682 24.3211 75.0799 24.6305 75.6916 24.743C75.9237 24.7852 76.6127 24.8485 77.2244 24.8907C77.8362 24.9258 78.3987 24.9891 78.469 25.0313C78.6799 25.1438 78.7362 25.3055 78.7854 25.9453C78.8065 26.2758 78.8627 26.7469 78.9119 26.993L78.9893 27.443L78.6096 27.7875C78.0541 28.2867 77.5619 28.6032 77.2385 28.6735C76.8026 28.7719 76.1838 28.6102 75.4315 28.2024C74.883 27.9071 74.5948 27.675 73.6666 26.7961C72.619 25.7977 72.1409 25.3899 72.1409 25.4883C72.1409 25.7133 73.2518 27.1336 73.9057 27.7313C74.419 28.2094 75.2135 28.7438 76.0502 29.1727C77.1119 29.7211 77.4002 30.0938 77.3229 30.8461C77.2244 31.8094 76.0432 33.518 75.5159 33.4547C75.326 33.4336 75.2487 33.293 74.5385 31.7602C74.1307 30.8813 73.1955 29.3485 71.9651 27.5274C71.0932 26.2407 70.826 25.7836 70.6643 25.2774C70.6151 25.1227 70.5237 24.9258 70.4674 24.8344C70.2354 24.4828 70.4955 22.2891 70.9174 21.0305C71.1565 20.3203 71.4869 19.8422 72.3096 19.0125C73.3713 17.9508 74.3909 17.325 75.326 17.1563C75.8393 17.0649 76.7815 17.1282 77.4494 17.2969ZM21.7338 20.9461C22.0432 21.2555 22.0713 21.4102 21.8744 21.8321C21.6916 22.2399 21.4877 22.3946 21.1361 22.3946C20.7916 22.3946 20.4752 22.1907 20.2854 21.8461C20.1236 21.5367 20.1799 21.3188 20.5244 20.9532C20.7635 20.7 20.8268 20.6719 21.1291 20.6719C21.4244 20.6719 21.4947 20.7071 21.7338 20.9461ZM68.5268 21.0446C68.9487 21.4242 68.9487 22.1063 68.5338 22.3594C68.2877 22.5141 67.7252 22.5492 67.4932 22.4297C67.0151 22.1696 67.0502 21.1922 67.5565 20.925C67.894 20.7422 68.2455 20.7844 68.5268 21.0446ZM1.72988 41.7094C1.8002 41.8782 2.1166 42.2649 2.42598 42.5813C3.30488 43.4672 4.30332 44.1141 5.4002 44.5078C5.63926 44.5922 5.83614 44.6907 5.83614 44.7117C5.83614 44.8102 5.43535 45.1266 4.88692 45.4571C3.67051 46.1953 2.96738 46.8141 2.21504 47.8266C2.01816 48.0867 1.82832 48.3047 1.7791 48.3047C1.73691 48.3047 1.58223 48.0797 1.44863 47.8055C1.20957 47.3274 1.19551 47.2641 1.19551 46.6032C1.19551 45.9703 1.17441 45.8719 0.977539 45.4782C0.717383 44.9719 0.724414 44.7258 1.00566 44.0157C1.13223 43.6992 1.19551 43.3547 1.23066 42.8907C1.27285 42.2227 1.44863 41.4141 1.54707 41.4141C1.5752 41.4141 1.65254 41.5477 1.72988 41.7094ZM88.4182 41.9907C88.6291 42.9539 88.6432 43.0664 88.587 43.2211C88.4745 43.5235 88.5166 43.8961 88.7346 44.4375C89.0018 45.1266 89.0088 45.45 88.7416 45.8157C88.5448 46.0758 88.5377 46.1321 88.5096 46.9336C88.4955 47.5875 88.4534 47.8477 88.3479 48.0797L88.2073 48.3821L87.912 47.9321C87.5815 47.4258 86.4846 46.35 85.7463 45.7946C85.4721 45.5907 85.008 45.2953 84.7127 45.1336C84.4104 44.9719 84.1854 44.8172 84.1995 44.7821C84.2205 44.7539 84.544 44.5641 84.9166 44.3672C86.0416 43.7625 86.6955 43.2914 87.694 42.3492C87.9963 42.068 88.2705 41.836 88.3127 41.836C88.3479 41.836 88.3971 41.9063 88.4182 41.9907ZM11.9815 44.2196C12.2697 44.4094 12.4455 44.7117 12.4455 45.0282C12.4455 45.2461 12.3963 45.3446 12.1994 45.5344C12.0588 45.661 11.8268 45.8086 11.6721 45.8508C11.3486 45.9492 11.1236 45.8367 10.8986 45.4711C10.744 45.225 10.7088 44.6625 10.8283 44.4375C11.0111 44.1 11.6229 43.9875 11.9815 44.2196ZM78.3354 44.5008C78.6518 44.8102 78.694 45.0844 78.469 45.3657C78.2018 45.7032 77.5268 45.9 77.4424 45.668C77.4143 45.6117 77.358 45.5625 77.3088 45.5625C77.126 45.5625 76.9924 45.3446 76.9924 45.0633C76.9924 44.536 77.2666 44.2336 77.7588 44.2266C78.019 44.2266 78.1034 44.2617 78.3354 44.5008ZM8.48692 45.7102C11.3135 46.0266 12.7268 47.6508 13.5072 51.4969C13.7463 52.6852 13.7393 52.8961 13.3596 54.3516C13.1065 55.3149 12.8182 56.0461 12.0447 57.6844C11.7213 58.3805 11.3908 59.1258 11.3205 59.3367C11.2502 59.5547 11.0252 60.0891 10.8283 60.5321C10.0408 62.2758 9.75254 63.1688 9.63301 64.2446C9.49942 65.5032 9.75254 67.2469 10.2025 68.1469C10.6455 69.0328 11.4963 69.9047 12.2768 70.2563C12.565 70.3899 12.7408 70.418 13.3947 70.418C14.0416 70.418 14.2244 70.3899 14.4986 70.2633C15.5393 69.7852 16.0244 68.8219 15.6025 68.0696C15.2018 67.3524 14.1471 67.1625 13.669 67.7321C13.4861 67.95 13.4791 67.9641 13.5213 68.7446C13.5424 69.1805 13.5494 69.5391 13.5354 69.5391C13.2541 69.5391 12.3541 69.3563 12.1713 69.2578C11.7354 69.0399 11.433 68.6039 11.1869 67.8727C10.9619 67.2047 10.99 66.8391 11.3205 66.1922C11.8338 65.1586 12.2416 64.9055 13.1697 65.0321C14.4143 65.2078 15.6869 65.8477 15.8557 66.3821C15.926 66.593 16.0315 66.5367 16.0315 66.2907C16.0315 66.1078 15.9541 65.9883 15.6236 65.6719C14.9627 65.025 14.0557 64.6594 12.9236 64.5821C11.3838 64.4766 11.1869 64.35 10.8213 63.2883C10.5541 62.4867 10.5471 62.5078 11.1025 61.8469C11.6088 61.2422 11.7705 61.1438 12.3119 61.1157C13.3947 61.0524 14.5549 61.65 16.2072 63.1336C16.5588 63.443 16.8471 63.668 16.8611 63.6328C16.9947 63.2391 15.3213 61.6219 14.0135 60.8836C13.0783 60.3633 12.7268 59.9485 12.7268 59.3789C12.7338 58.8867 12.9025 58.0078 13.0432 57.7266C13.2119 57.4032 14.119 56.5172 14.2596 56.5453C14.3299 56.5594 14.6252 57.0657 15.0119 57.8321C15.3565 58.5282 15.9049 59.4914 16.2143 59.9766C16.5307 60.4617 16.84 60.968 16.9104 61.1016C16.9807 61.2352 17.2197 61.6289 17.4377 61.9805C18.1197 63.0563 18.7033 64.0969 18.851 64.5117C19.076 65.1446 19.1604 66.361 19.0619 67.4508C18.9283 68.9063 18.5908 69.7008 17.726 70.6149C16.8541 71.5289 15.9611 72.1125 15.019 72.3867C14.4283 72.5625 12.4315 72.5063 11.651 72.2953C10.744 72.0492 10.2307 71.7539 9.58379 71.1071C9.07754 70.6008 8.95098 70.418 8.62051 69.736C8.11426 68.6953 7.86114 67.9852 7.63614 66.9938C7.4041 65.9532 7.4041 65.4469 7.66426 64.0758C8.12129 61.6149 8.68379 59.9625 10.0479 57.0305C11.1588 54.661 11.5244 53.2547 11.44 51.6867C11.3768 50.3508 10.8986 49.2047 10.0971 48.4032C9.42207 47.7422 9.11973 47.6016 8.36036 47.6016C7.5377 47.6016 7.27051 47.693 6.87676 48.0938C6.44082 48.5508 6.33535 48.8883 6.49707 49.3242C6.74317 49.9711 7.22832 50.2453 7.70645 50.0203C7.9666 49.8938 8.50801 49.2821 8.50801 49.1063C8.50801 48.8321 9.24629 49.1836 9.6752 49.6617C10.0338 50.0625 10.1955 50.4985 10.2447 51.2367C10.2799 51.6727 10.2658 51.7711 10.1322 51.9891C9.81582 52.4883 9.07051 52.9383 8.4377 52.9946C8.12832 53.0227 7.9666 52.9946 7.66426 52.868C7.17207 52.6641 6.46895 52.2141 5.98379 51.7992C5.42129 51.3141 5.24551 51.3563 5.61817 51.8766C5.99082 52.3828 6.8416 52.861 8.27598 53.3672C8.74004 53.5289 9.21817 53.7188 9.33067 53.7891C9.68926 54.0071 9.79473 54.3446 9.82989 55.4063L9.85801 56.3555L9.48536 56.5313C9.28145 56.6297 8.87364 56.8617 8.58536 57.0446C8.29707 57.2344 7.95957 57.4032 7.83301 57.4242C7.46035 57.4875 6.96817 57.1571 6.1666 56.3203C5.32285 55.4344 4.66192 54.5414 4.26817 53.7328C4.11348 53.4164 3.95879 53.1563 3.93067 53.1563C3.77598 53.1563 3.79707 53.5008 3.96582 53.8242C4.06426 54.0071 4.14863 54.2039 4.14863 54.2602C4.14863 54.5977 4.90801 55.6383 6.32129 57.2344C6.8416 57.825 7.11582 58.2047 7.33379 58.6407C7.60098 59.1891 7.6291 59.2805 7.62207 59.7657C7.62207 60.1805 7.56582 60.4266 7.38301 60.9258C7.16504 61.5235 7.11582 61.5938 6.47598 62.2336C5.77989 62.9227 5.51973 63.0914 5.40723 62.9227C5.3791 62.8735 5.29473 62.6063 5.23145 62.3321C4.90801 60.9891 4.47207 59.836 3.36113 57.4524C2.13067 54.8016 1.95488 54.1688 1.96191 52.411C1.96191 51.6305 1.99707 51.1805 2.06738 50.9696C2.12363 50.8008 2.18692 50.5477 2.20801 50.4141C2.27832 50.0344 2.91113 48.7688 3.41035 48.0164C4.31738 46.6524 5.4002 45.9141 6.78535 45.7102C7.39004 45.6258 7.72051 45.6258 8.48692 45.7102ZM83.3557 46.0196C83.9745 46.1813 85.1276 46.7719 85.5987 47.1657C85.8307 47.3555 86.2737 47.7985 86.5901 48.1571C87.0893 48.7125 87.1948 48.8883 87.4127 49.4508C87.5534 49.8024 87.701 50.3227 87.7432 50.6039C87.8487 51.3071 87.8346 53.2828 87.7221 53.9297C87.6166 54.4992 86.9135 56.3133 86.4002 57.3399C85.1698 59.7867 84.7409 60.8977 84.5088 62.2617C84.4315 62.7258 84.326 63.1477 84.2768 63.1969C84.1291 63.3516 83.644 63.1617 83.2432 62.8032C82.9971 62.5782 82.8073 62.318 82.5823 61.8539C82.2377 61.1578 82.1252 60.6938 82.1252 60.0117C82.1252 59.0625 82.3995 58.5985 83.7846 57.1992C84.319 56.6508 84.9237 55.9758 85.1205 55.6875C85.6338 54.9422 86.4424 53.3883 86.344 53.3321C86.2174 53.2547 86.0838 53.4164 85.6409 54.2039C84.8955 55.5188 83.8057 56.6297 82.7791 57.143C82.3573 57.3539 82.2166 57.3891 81.9565 57.361C81.4924 57.3047 81.0284 57.0516 80.5151 56.5594L80.051 56.1235L80.058 55.5328C80.0651 54.9211 80.1705 54.4711 80.3604 54.2532C80.5432 54.0492 81.0424 53.8242 81.9495 53.55C83.201 53.1703 83.7002 52.9032 84.2768 52.2985C84.8041 51.743 85.1698 51.1805 85.1346 50.9907C85.1205 50.9133 84.9729 51.0469 84.6705 51.4196C83.0674 53.3813 80.4307 53.7539 79.6291 52.1367C79.1862 51.2438 79.8471 49.7742 80.8174 49.5C81.2182 49.3875 81.3799 49.4508 81.5768 49.7672C81.8651 50.2383 82.4135 50.625 82.7791 50.625C83.208 50.625 83.5948 50.0203 83.6018 49.3594C83.6018 48.811 83.433 48.5578 82.8635 48.2907C81.5909 47.7 80.2268 47.925 79.2987 48.8883C78.8346 49.3735 78.694 49.6407 78.4057 50.5899C78.2018 51.2508 78.1877 51.3633 78.1877 52.3828C78.1948 54.2883 78.258 54.5344 79.4393 56.9883C81.4643 61.2071 81.7596 61.8891 82.0198 62.9227C82.3291 64.1391 82.4346 66.4735 82.2307 67.6758C82.1463 68.175 82.0338 68.4774 81.7245 69.0961C81.1338 70.2914 80.7049 70.9032 79.8682 71.7188C79.2143 72.3657 79.0244 72.5063 78.3916 72.8227C77.5268 73.2586 77.1823 73.336 76.0432 73.336C74.9252 73.336 74.5596 73.2657 73.7932 72.886C72.7244 72.3516 71.7752 71.4024 71.269 70.3477C70.8049 69.3844 70.383 67.711 70.383 66.811C70.383 65.9672 70.8541 64.2657 71.3252 63.3867C71.6557 62.775 72.4362 61.5305 73.0198 60.6797C74.208 58.95 74.9252 57.586 75.0307 56.8336C75.101 56.3485 75.1924 56.1094 75.3119 56.1094C75.4385 56.1094 76.3315 57.0094 76.6057 57.4032C76.9362 57.8883 77.0416 58.4578 76.9291 59.2313C76.8096 60.1102 76.6619 60.3282 75.6565 61.1297C74.1166 62.3602 72.8229 63.7594 72.5416 64.4977C72.4713 64.6805 72.5346 64.6313 73.6034 63.6469C75.2838 62.1071 76.3455 61.3617 76.8518 61.3617C77.351 61.3617 77.8362 61.6852 78.5393 62.4797C78.6729 62.6274 78.8416 62.7821 78.9119 62.8242C79.0315 62.8946 79.0315 62.9297 78.919 63.6328C78.7643 64.6524 78.6166 65.1024 78.3776 65.2782C78.2088 65.3977 78.033 65.4258 76.9713 65.468C75.4526 65.5383 75.3401 65.5664 74.433 66.1992C73.8916 66.5789 73.5471 66.8953 73.5471 67.0078C73.5471 67.0922 73.5963 67.0641 74.3557 66.5649C74.9323 66.1711 75.6494 65.9391 76.2682 65.925C76.7323 65.925 76.8237 65.9461 77.3932 66.2344C78.1737 66.6352 78.2862 66.818 78.2862 67.711C78.2932 68.2102 78.258 68.3719 78.1034 68.7094C77.7588 69.4547 77.0346 70.0453 76.4369 70.0594L76.1909 70.0664L76.0994 69.4688C76.0221 68.9203 75.994 68.85 75.769 68.6391C75.4385 68.3438 75.0096 68.3297 74.4682 68.5969C74.0112 68.8289 73.8987 68.9977 73.8494 69.518C73.7932 70.1157 73.9268 70.5024 74.3135 70.8821C74.7916 71.3602 75.2979 71.5289 76.1135 71.4938C77.1401 71.4516 77.8502 71.0438 78.5955 70.0805C79.1299 69.3774 79.7346 68.3367 79.8823 67.8375C80.1705 66.8883 80.1705 64.3922 79.8752 63.1407C79.7065 62.4305 78.8838 60.3071 78.0612 58.5C76.9151 55.9617 76.5705 54.6328 76.5705 52.7766C76.5705 49.6407 77.6041 47.6227 79.7698 46.5258C80.8245 45.9985 82.3995 45.7735 83.3557 46.0196ZM21.5018 67.8094C21.6635 67.9711 21.6916 68.0555 21.6916 68.4211C21.6916 68.7867 21.6705 68.8641 21.5158 68.9766C21.2979 69.1453 20.8057 69.2227 20.5174 69.1453C19.8916 68.9625 19.8494 68.0133 20.4541 67.6688C20.7424 67.5071 21.2768 67.5774 21.5018 67.8094ZM68.4284 67.7953C68.7799 67.9922 68.9838 68.3297 68.9979 68.7235C69.0119 68.9836 68.9768 69.075 68.801 69.2649C68.2385 69.8625 67.4862 69.7852 67.1346 69.1032C66.9799 68.8078 66.9518 68.2946 67.0784 68.0625C67.2963 67.6547 67.9432 67.5282 68.4284 67.7953ZM23.6252 70.3407C24.8065 70.5938 25.6361 71.0227 28.2307 72.7032C29.6229 73.6032 31.001 74.3133 32.3651 74.8125C32.9346 75.0164 33.3986 75.2203 33.3986 75.2485C33.3986 75.3821 33.0471 75.8532 32.7377 76.1344C32.1049 76.718 31.1065 77.0485 30.2768 76.9571C29.3838 76.8516 29.2854 76.7742 28.1393 75.2555C27.2182 74.0391 26.7893 73.5961 26.051 73.1039C25.6221 72.8227 25.1018 72.6117 25.1018 72.7242C25.1018 72.7453 25.3619 72.9774 25.6854 73.2516C26.3041 73.7789 27.1338 74.7 27.619 75.3961C27.9635 75.8953 28.2658 76.7672 28.2658 77.2735C28.2658 77.5617 28.2236 77.6672 27.9565 78.0258C27.5979 78.5039 26.8385 79.2422 26.7119 79.2422C26.6627 79.2422 26.5572 79.1789 26.4729 79.1016C26.3885 79.0172 26.0721 78.8555 25.7697 78.7289C25.4533 78.6024 25.1651 78.4266 25.0947 78.3282C25.0244 78.2297 24.8979 77.8078 24.8135 77.3789C24.469 75.5789 23.8151 74.0813 23.2174 73.7367C22.9432 73.5821 22.8869 73.6664 23.0697 73.9758C23.808 75.2414 24.1807 76.9008 23.9135 77.7094C23.808 78.0399 23.4213 78.3774 23.0979 78.4407C22.7955 78.4969 22.24 78.3914 21.79 78.2016C21.3541 78.0117 20.651 77.4141 20.5033 77.1047C20.3627 76.8094 20.4049 76.711 20.8127 76.2399C21.3752 75.6 21.3752 74.693 20.8057 74.0953C20.5877 73.8633 20.5104 73.8282 20.2432 73.8282C19.8494 73.8282 19.5471 74.011 19.2377 74.4399C18.9213 74.8688 18.844 75.1992 18.844 76.0641C18.844 76.7532 18.844 76.7602 19.1955 77.4774C19.6104 78.3211 20.0815 78.8625 20.869 79.3899C21.551 79.8469 21.8955 79.9383 23.1611 79.9875C24.7151 80.0508 25.6502 79.9453 27.2111 79.5305C28.8494 79.0875 29.3838 78.9047 31.0432 78.2086C34.1018 76.9219 35.6979 76.5 37.5119 76.5C39.6635 76.5 41.1471 77.0555 42.6588 78.4266C43.0807 78.8063 43.5799 79.5375 43.9385 80.2969L44.1916 80.8242L44.1846 81.9141C44.1776 82.8844 44.1565 83.0742 43.9877 83.6227C43.8893 83.9672 43.7346 84.375 43.6502 84.5367C42.7854 86.2453 40.8518 87.7852 39.1643 88.1086C38.9111 88.1578 38.201 88.193 37.5822 88.193C36.5979 88.193 36.3729 88.1719 35.7611 88.0102C34.8471 87.7641 33.1596 87.0891 30.9096 86.0485C29.9041 85.5844 28.758 85.0992 28.3713 84.9657C27.8018 84.7758 26.7963 84.593 26.3252 84.586C26.0088 84.586 26.3393 83.7563 26.8104 83.3555C27.6119 82.6664 29.2854 82.1953 30.1643 82.4063C30.5861 82.5047 30.8533 82.7157 32.3088 84.0938C33.8065 85.5071 34.9807 86.2102 36.0072 86.3227C36.619 86.386 36.5416 86.2594 35.6557 85.7813C34.3057 85.0571 32.3861 83.461 32.0697 82.8C31.8869 82.4274 31.8799 81.9071 32.0557 81.5274C32.2385 81.1196 33.0119 80.1282 33.2018 80.0438C33.2932 80.0016 33.5041 79.9946 33.6799 80.0227C33.8557 80.0508 34.1721 80.0789 34.3901 80.0789C34.8752 80.086 35.2057 80.1914 35.4518 80.4235C35.6838 80.6344 35.7611 80.8735 35.8174 81.5133C35.9158 82.5469 36.3799 83.475 37.1815 84.2485C37.6666 84.7196 38.3135 85.0992 38.7635 85.1836C39.1713 85.261 39.0799 85.1133 38.5315 84.825C37.8916 84.4946 37.0901 83.6578 36.7596 82.9828C36.5416 82.5469 36.5276 82.4625 36.5276 81.8086C36.5276 81 36.6471 80.6555 37.0901 80.1703C37.4557 79.7625 37.8283 79.636 38.5526 79.6782C39.5791 79.7274 40.3033 80.2336 40.5424 81.0492C40.7112 81.6399 40.676 81.7242 40.1979 81.8227C39.2276 82.0125 39.0166 82.8914 39.7549 83.6297C40.1205 84.0024 40.3385 84.0586 40.8096 83.925C41.2666 83.7914 41.7166 83.4117 41.9627 82.9407C42.1315 82.6172 42.1526 82.5117 42.1526 81.8438C42.1526 81.1477 42.1385 81.0703 41.9276 80.6414C41.6393 80.0578 41.2385 79.6008 40.6901 79.2282C40.0221 78.7711 39.2065 78.518 37.7791 78.3211C37.2096 78.2438 37.0479 78.2438 36.408 78.3563C34.7135 78.6516 32.9276 79.3407 31.4158 80.2758C30.2135 81.0211 29.0182 81.5063 27.2744 81.9774C26.0369 82.3078 25.3057 82.4133 24.2158 82.4133C23.0627 82.4203 22.6127 82.35 21.6354 82.0125C20.0815 81.4782 19.1604 80.8875 18.2955 79.875C17.1705 78.5532 16.9033 77.7235 16.9596 75.7336C16.9877 74.7492 17.0018 74.686 17.2479 74.0883C17.6838 73.0196 18.6682 71.7188 19.0408 71.7188C19.1111 71.7188 19.2658 71.5992 19.3854 71.4516C19.744 71.0086 20.8479 70.5516 22.0572 70.3477C22.7815 70.2282 23.0768 70.2282 23.6252 70.3407ZM68.1682 70.6992C69.5112 70.9383 70.2284 71.3039 71.1635 72.211C72.1338 73.1602 72.7315 74.2078 72.9213 75.2766C73.1534 76.6055 72.7385 78.5532 71.9932 79.643C71.3955 80.5149 70.2424 81.4641 69.251 81.893C68.2596 82.3219 67.5354 82.4344 65.7776 82.4414C63.5205 82.4414 62.733 82.2657 60.6096 81.3024C59.9698 81.0141 59.2948 80.7188 59.0979 80.6485C58.908 80.5782 58.0994 80.2407 57.3049 79.8891C54.6541 78.7289 54.3237 78.6516 52.0596 78.6938C50.4143 78.7219 50.3932 78.7289 49.4018 79.3055C48.6987 79.7133 48.101 80.2899 47.8408 80.8313C47.658 81.211 47.6369 81.3164 47.6369 82.0196C47.6369 82.8985 47.7424 83.1938 48.1713 83.5453C48.8252 84.0727 50.1049 83.7422 50.2385 83.011C50.344 82.4625 49.908 81.7875 49.3455 81.6188C49.1979 81.5766 49.0432 81.4992 49.001 81.45C48.783 81.1828 49.3596 80.3532 49.9854 80.0438C50.1893 79.9383 50.569 79.8117 50.8291 79.7625C51.2862 79.6711 51.3002 79.6782 51.5744 79.861C52.2354 80.311 52.7346 81.0563 52.7346 81.5836C52.7346 82.0266 52.5166 83.0672 52.3549 83.4258C52.0526 84.0867 51.3424 84.7407 50.4776 85.1555C50.0205 85.3805 49.9713 85.5211 50.3369 85.5563C50.9346 85.6196 51.8979 84.9446 52.5237 84.0235C52.8893 83.4891 52.9948 83.2078 53.1987 82.3008C53.2971 81.8578 53.4729 81.3164 53.6135 81.0282C53.8948 80.4446 54.1127 80.3039 55.1955 79.9594C56.2783 79.6219 56.2291 79.6219 56.3276 79.9313C56.3698 80.0719 56.5315 80.4305 56.6721 80.7188C57.0237 81.4219 57.1151 81.7242 57.108 82.1672C57.101 82.7157 56.8198 83.2219 56.0744 84.0094C55.301 84.825 54.626 85.3805 53.7471 85.8938C53.3815 86.1047 53.0862 86.3016 53.0862 86.3227C53.0862 86.4071 53.6346 86.2524 54.2182 85.9992C55.0901 85.6196 55.5612 85.2539 56.9182 83.8828C58.1627 82.6242 58.5002 82.343 58.9362 82.2024C59.2877 82.0899 60.0682 82.0969 60.5041 82.2235C61.4041 82.4766 61.6151 82.5961 62.1635 83.1727C62.6627 83.693 63.1901 84.5227 63.1057 84.6563C63.0916 84.6844 62.6838 84.7266 62.2057 84.7547C60.6448 84.8391 59.9065 85.0852 56.6721 86.5688C55.4487 87.1383 54.9916 87.3141 53.8385 87.6727C53.1776 87.8766 50.9557 88.0102 50.1049 87.9047C49.4229 87.8133 48.7197 87.5461 48.108 87.1313C47.6299 86.8008 46.9127 86.0555 46.6526 85.6055C46.1112 84.6914 45.6893 83.2852 45.6963 82.4485C45.7033 81.8649 45.9565 80.7891 46.2377 80.1422C46.7791 78.9117 47.6862 77.9063 48.7197 77.386C49.6971 76.9008 50.1752 76.8164 51.9612 76.8164C53.6908 76.8235 54.2041 76.8938 55.5049 77.3438C56.3838 77.6461 58.1065 78.3282 58.8658 78.6657C59.126 78.7852 59.6815 79.0102 60.0963 79.1649C60.5112 79.3196 61.1088 79.5586 61.4252 79.6922C62.6557 80.2336 64.1815 80.4727 65.9393 80.4164C67.5284 80.3672 68.3862 80.1352 69.3354 79.4953C70.7698 78.5321 71.4869 77.0696 71.1213 75.8321C70.8752 74.9883 70.5307 74.5032 70.0174 74.2922C69.2088 73.9547 68.4213 74.5242 68.4987 75.3891C68.5338 75.6914 68.583 75.7758 69.0401 76.2539C69.3143 76.5422 69.5393 76.8305 69.5393 76.8938C69.5393 77.1047 69.0893 77.85 68.7869 78.1594C68.4002 78.5461 68.119 78.6305 67.4018 78.5953C66.5721 78.5532 66.2768 78.3774 65.9534 77.7375C65.7354 77.2946 65.7073 77.1821 65.7073 76.6828C65.7073 75.8039 65.9674 75.3188 67.2049 73.9055C67.6549 73.3852 67.7182 73.2657 67.5284 73.2657C67.3807 73.2657 65.9815 74.6297 65.7284 75.0235C65.3768 75.5719 65.1729 76.3524 65.1096 77.3789C65.0463 78.4688 64.9479 78.7711 64.5893 78.9188C64.3783 79.0032 62.7963 79.3828 62.6346 79.3828C62.6065 79.3828 62.4658 79.2141 62.3252 79.0032C62.1846 78.7922 61.9455 78.5321 61.7979 78.4266C61.6432 78.3211 61.4182 78.1242 61.2987 77.9907C61.0948 77.7586 61.0877 77.7164 61.1229 77.3016C61.1791 76.5352 61.8682 75.4383 62.951 74.3696C63.6119 73.7227 64.1182 73.35 65.0744 72.8086C65.4612 72.5907 65.8268 72.3657 65.883 72.3024C65.9744 72.2039 65.9604 72.1969 65.7424 72.2321C65.3135 72.2883 64.2518 72.7805 63.5346 73.2516C62.6416 73.8422 61.5799 74.8617 60.8557 75.8321C60.2088 76.6969 59.8291 77.0836 59.5198 77.2032C58.9713 77.4211 57.7901 77.2032 57.1432 76.7742C56.7565 76.5211 56.2643 75.9797 56.1658 75.7055C56.1237 75.6 56.0463 75.5157 55.983 75.5157C55.8846 75.5086 55.8987 75.4875 56.0252 75.375C56.1729 75.2485 56.3416 75.2063 57.3049 75.0375C58.0362 74.9039 59.0065 74.3485 60.6588 73.111C62.4237 71.7961 64.2448 70.861 65.5666 70.6008C66.0377 70.5094 67.3807 70.5586 68.1682 70.6992ZM16.4393 73.5891L16.144 74.2852L16.158 75.9938C16.1791 77.9274 16.1932 77.8711 15.6377 77.6602C15.4197 77.5758 15.265 77.4563 15.1455 77.2735C14.9486 76.9711 14.6252 76.7321 14.0979 76.493C13.683 76.2961 12.7971 75.4524 12.7971 75.2555C12.7971 75.1782 12.6002 74.8407 12.3541 74.5172C11.9322 73.9477 11.6861 73.5117 11.7565 73.4414C11.7705 73.4203 12.2979 73.4414 12.9166 73.4907C14.344 73.5891 14.9697 73.5188 15.9752 73.1391C16.376 72.9844 16.7065 72.8719 16.7205 72.8789C16.7275 72.886 16.601 73.2024 16.4393 73.5891ZM74.433 73.9336C75.3471 74.1024 76.4018 74.1657 77.2666 74.0953C77.7026 74.0602 78.0752 74.0461 78.0963 74.0602C78.1526 74.1235 77.4776 74.9532 77.0979 75.2766C76.8799 75.4664 76.5916 75.7969 76.4651 76.0078C76.1768 76.486 76.0151 76.6336 75.4807 76.9149C75.2487 77.0344 74.8268 77.3227 74.5385 77.5547C73.7721 78.1664 73.4276 78.1946 73.4979 77.6461C73.6877 76.1836 73.6948 76.05 73.6174 75.1782C73.5752 74.686 73.519 74.1797 73.4979 74.0532C73.4627 73.8422 73.4698 73.8282 73.6737 73.8282C73.7862 73.8282 74.1307 73.8774 74.433 73.9336ZM45.4854 77.611C45.8018 77.8641 45.9424 78.1383 45.8791 78.3844C45.8229 78.6235 45.2041 79.2422 45.0283 79.2422C44.7822 79.2422 44.269 78.9328 44.1354 78.7008C43.9737 78.4266 43.9596 77.9625 44.1072 77.7446C44.3885 77.3086 45.0354 77.2453 45.4854 77.611ZM45.3237 85.0992C46.0408 86.3016 46.3994 86.8078 47.1026 87.5883C47.4541 87.9821 47.7424 88.3407 47.7424 88.3828C47.7424 88.425 47.6229 88.5094 47.4822 88.5657C47.2713 88.6571 47.0744 88.6711 46.4697 88.6289L45.7244 88.5797L45.6752 88.7555C45.6119 89.0086 45.2533 89.2407 44.8666 89.2758C44.5362 89.311 44.2971 89.1914 43.7205 88.7274C43.5447 88.5867 43.5096 88.5797 43.2143 88.6641C42.7783 88.7836 41.6604 88.7344 41.5127 88.5797C41.4072 88.4813 41.4635 88.418 42.1244 87.9188C42.9471 87.3 43.9596 86.3016 44.0721 86.0133C44.1143 85.9008 44.2619 85.5282 44.3955 85.1766C44.5362 84.825 44.6487 84.4875 44.6487 84.4313C44.6487 84.2977 44.719 84.2274 44.7963 84.2766C44.8315 84.2977 45.0705 84.6703 45.3237 85.0992Z" fill="#729A1C"/>
<path d="M5.02749 50.6882C5.0064 50.7234 5.06968 50.8429 5.16812 50.9554C5.35093 51.1593 5.39312 51.1101 5.27359 50.8078C5.20328 50.6179 5.10484 50.5757 5.02749 50.6882Z" fill="#9FDA22"/>
<ellipse cx="44.5" cy="45" rx="31.5" ry="32" fill="#729A1C"/>
</g>
<g clip-path="url(#clip1)">
<path d="M44.168 18H45.8346V19.6667H44.168V18Z" fill="white"/>
<path d="M61.6667 66.3334V62.1667H62.5C66.18 62.1626 69.1626 59.1801 69.1667 55.5001C69.1667 55.0398 68.7935 54.6667 68.3333 54.6667H66.6667C64.2399 54.6683 62.0056 55.9883 60.8333 58.1136C59.661 55.9883 57.4268 54.6683 55 54.6667H53.3333C52.8731 54.6667 52.5 55.0398 52.5 55.5001C52.5041 59.1801 55.4867 62.1626 59.1667 62.1667H60V66.3334H45.8333V57.1667H46.6667C50.3467 57.1627 53.3293 54.1801 53.3333 50.5001C53.3333 50.0399 52.9602 49.6667 52.5 49.6667H50.8333C49.965 49.6659 49.1044 49.8356 48.3016 50.1668C48.3228 50.0008 48.3333 49.834 48.3333 49.6667C48.3333 46.9775 45.614 44.9166 45.5001 44.8336C45.2039 44.611 44.7961 44.611 44.4999 44.8336C44.3844 44.9166 41.6667 46.9791 41.6667 49.6667C41.6667 49.834 41.6772 50.0008 41.6984 50.1668C40.8956 49.8356 40.035 49.6659 39.1667 49.6667H37.5C37.0398 49.6667 36.6667 50.0399 36.6667 50.5001C36.6707 54.1801 39.6533 57.1627 43.3333 57.1667H44.1667V59.6883C43.4497 59.1369 42.5712 58.8366 41.6667 58.8334H40C39.5398 58.8334 39.1667 59.2065 39.1667 59.6667C39.1695 61.9669 41.0331 63.8305 43.3333 63.8334H44.1667V66.3334H30V62.1667H30.8333C34.5133 62.1626 37.4959 59.1801 37.5 55.5001C37.5 55.0398 37.1269 54.6667 36.6667 54.6667H35C32.5732 54.6683 30.3389 55.9883 29.1667 58.1136C27.9944 55.9883 25.7601 54.6683 23.3333 54.6667H21.6667C21.2065 54.6667 20.8333 55.0398 20.8333 55.5001C20.8374 59.1801 23.82 62.1626 27.5 62.1667H28.3333V66.3334H20V68H70V66.3334H61.6667ZM66.6667 56.3334H67.4308C67.0211 58.7378 64.939 60.4968 62.5 60.5001H61.7358C62.1456 58.0957 64.2277 56.3366 66.6667 56.3334ZM59.1667 60.5001C56.7277 60.4968 54.6456 58.7378 54.2358 56.3334H55C57.439 56.3366 59.5211 58.0957 59.9308 60.5001H59.1667ZM43.3333 62.1667C42.2742 62.1655 41.3302 61.4982 40.9757 60.5001H41.6667C42.7258 60.5013 43.6698 61.1686 44.0243 62.1667H43.3333ZM51.5975 51.3334C51.1877 53.7378 49.1056 55.4968 46.6667 55.5001H45.9025C46.3123 53.0957 48.3944 51.3366 50.8333 51.3334H51.5975ZM45 46.6036C45.9216 47.3779 46.5169 48.4721 46.6667 49.6667C46.5202 50.8622 45.9245 51.9576 45 52.7299C44.0784 51.9555 43.4831 50.8614 43.3333 49.6667C43.4798 48.4713 44.0755 47.3759 45 46.6036ZM43.3333 55.5001C40.8944 55.4968 38.8123 53.7378 38.4025 51.3334H39.1667C41.6056 51.3366 43.6877 53.0957 44.0975 55.5001H43.3333ZM35 56.3334H35.7642C35.3544 58.7378 33.2723 60.4968 30.8333 60.5001H30.0692C30.4789 58.0957 32.561 56.3366 35 56.3334ZM27.5 60.5001C25.061 60.4968 22.9789 58.7378 22.5692 56.3334H23.3333C25.7723 56.3366 27.8544 58.0957 28.2642 60.5001H27.5Z" fill="white"/>
<path d="M45.0013 35.5C48.2231 35.5 50.8346 32.8885 50.8346 29.6667C50.8346 26.4449 48.2231 23.8334 45.0013 23.8334C41.7795 23.8334 39.168 26.4449 39.168 29.6667C39.172 32.8865 41.7815 35.496 45.0013 35.5ZM45.0013 25.5C47.3023 25.5 49.168 27.3657 49.168 29.6667C49.168 31.9677 47.3023 33.8334 45.0013 33.8334C42.7003 33.8334 40.8346 31.9677 40.8346 29.6667C40.8375 27.3665 42.7011 25.5029 45.0013 25.5Z" fill="white"/>
<path d="M44.168 20.5H45.8346V22.1667H44.168V20.5Z" fill="white"/>
<path d="M37.9297 23.7735L39.1081 22.5951L40.2865 23.7735L39.1081 24.9519L37.9297 23.7735Z" fill="white"/>
<path d="M35.832 28.8334H37.4987V30.5H35.832V28.8334Z" fill="white"/>
<path d="M37.9297 35.5594L39.1081 34.3806L40.2865 35.5594L39.1081 36.7378L37.9297 35.5594Z" fill="white"/>
<path d="M44.168 37.1666H45.8346V38.8333H44.168V37.1666Z" fill="white"/>
<path d="M49.7148 35.5594L50.8932 34.381L52.072 35.5594L50.8932 36.7378L49.7148 35.5594Z" fill="white"/>
<path d="M52.5 28.8334H54.1667V30.5H52.5V28.8334Z" fill="white"/>
<path d="M49.7148 23.7743L50.8936 22.5959L52.072 23.7743L50.8936 24.9531L49.7148 23.7743Z" fill="white"/>
<path d="M36.1602 22.0059L37.3385 20.8275L38.5169 22.0059L37.3385 23.1847L36.1602 22.0059Z" fill="white"/>
<path d="M33.332 28.8334H34.9987V30.5H33.332V28.8334Z" fill="white"/>
<path d="M36.1602 37.3266L37.3385 36.1478L38.5169 37.3266L37.3385 38.505L36.1602 37.3266Z" fill="white"/>
<path d="M44.168 39.6666H45.8346V41.3333H44.168V39.6666Z" fill="white"/>
<path d="M51.4805 37.3269L52.6589 36.1486L53.8376 37.3269L52.6589 38.5053L51.4805 37.3269Z" fill="white"/>
<path d="M55 28.8334H56.6667V30.5H55V28.8334Z" fill="white"/>
<path d="M51.4805 22.0064L52.6589 20.828L53.8376 22.0064L52.6589 23.1852L51.4805 22.0064Z" fill="white"/>
</g>
<defs>
<clipPath id="clip0">
<rect width="89.7188" height="90" fill="white"/>
</clipPath>
<clipPath id="clip1">
<rect x="20" y="18" width="50" height="50" fill="white"/>
</clipPath>
</defs>
</svg>
